<?xml version="1.0" encoding="utf-8"?>
<!-- Generator: Adobe Illustrator 24.0.1, SVG Export Plug-In . SVG Version: 6.00 Build 0)  -->
<svg version="1.1" id="Layer_1" xmlns="http://www.w3.org/2000/svg" xmlns:xlink="http://www.w3.org/1999/xlink" x="0px"
	y="0px" viewBox="0 0 228.7 300" style="enable-background:new 0 0 228.7 300;" xml:space="preserve">
	<style type="text/css">
		.lower {
			fill: #046380;
		}

		.capital {
			fill: none;
			stroke: #7F7978;
			stroke-width: 22.7341;
			stroke-miterlimit: 10;
		}
	</style>
	<path id="capital" class="capital" d="M11.2,300V11.7h155.5c0,0,39,2.3,48.5,41.1c8.8,35.9-18.1,51.3-18.1,51.3" />
	<path id="bowl" class="lower" d="M131.5,133c39.8,0,72,32.2,72,72s-32.2,72-72,72s-72-32.2-72-72C59.5,165.3,91.8,133,131.5,133 M131.5,110c-52.5,0-95,42.5-95,95s42.5,95,95,95s95-42.5,95-95S184,110,131.5,110z" />
	<rect id="stem" x="36" y="277" class="lower" width="23" height="23" /> <!-- final y="36" height="264" -->
</svg>