<?xml version="1.0" encoding="utf-8"?>
<!-- Generator: Adobe Illustrator 25.1.0, SVG Export Plug-In . SVG Version: 6.00 Build 0)  -->
<svg version="1.1" id="coming_soon" xmlns="http://www.w3.org/2000/svg" xmlns:xlink="http://www.w3.org/1999/xlink" x="0px"
	 y="0px" viewBox="0 0 1735.8 191.9" style="enable-background:new 0 0 1735.8 191.9;" xml:space="preserve">
<style type="text/css">
	.st0{fill:none;stroke:#000000;stroke-miterlimit:10;}
</style>
<g>
	<path class="st0" d="M176,44.5l-12.5,7.2c-6.1-11.4-15.6-20.9-27.2-27.6s-25.3-10.5-39.9-10.5c-24.4,0-45,9.1-59.5,24
		S14.1,72.9,14.1,95.7s8.4,43.3,22.9,58.2c14.5,14.8,35.1,24,59.5,24c14.7,0,28.6-3.9,40.3-10.7s21.2-16.6,27.3-28.2l12.5,7.2
		c-7.6,13.7-18.9,25-32.7,32.9c-13.8,7.9-30,12.4-47.4,12.4c-28.2,0-52.4-10.7-69.4-28S0,122.2,0,95.7C0,69.2,10,45.3,27.1,28
		S68.3,0,96.5,0c17.1,0,33.1,4.4,46.8,12.1S168.4,31,176,44.5"/>
</g>
<g>
	<path class="st0" d="M284.9,0.5c53.5,0,95.7,42.7,95.7,95.7c0,53-42.1,95.7-95.7,95.7c-53.6,0-95.7-42.7-95.7-95.7
		S231.4,0.5,284.9,0.5"/>
	<path class="st0" d="M284.9,14c-45.9,0-81.7,36.6-81.7,82.2s35.8,82.2,81.7,82.2s81.7-36.6,81.7-82.2S330.8,14,284.9,14"/>
</g>
<g>
	<path d="M571.7,189h-14V24.1l-68.7,114h-2.4l-68.7-114V189h-14V3.4h17.5l66.3,109.8L553.9,3.4h17.8L571.7,189L571.7,189z"/>
</g>
<g>
	<path d="M608.9,3.4V189h-14V3.4H608.9z"/>
</g>
<g>
	<path d="M767.8,3.4V189h-12.5L645.9,29.4V189h-14V3.4H644L753.8,163V3.4H767.8z"/>
</g>
<g>
	<path d="M967.4,109.7c0,44.8-34.2,82.2-89.6,82.2c-57.5,0-97.6-42.7-97.6-95.7c0-53,40-95.7,96.5-95.7c34.5,0,64.4,18,79.8,44.8
		l-12.5,7.4C931.9,29.4,905.9,14,876.7,14c-48.8,0-82.5,36.6-82.5,82.2s33.7,82.2,83.5,82.2c45.1,0,72.4-27.8,75.3-62.6h-78.7v-13.3
		h93.1V109.7z"/>
</g>
<g>
	<path d="M1039.7,148.1l12.2-7.2c6.4,22.3,25.2,37.4,55.7,37.4c31,0,46.7-15.9,46.7-37.1c0-22.3-19.6-30.8-48-39.8
		c-31-10.1-58.9-18.8-58.9-51.2c0-30.5,24.7-49.8,56.2-49.8c30.5,0,50.6,17.5,59.7,39l-11.9,6.6c-6.9-16.7-21.2-32.1-47.7-32.1
		c-25.7,0-41.9,15.1-41.9,35.8c0,22.3,18.8,29.2,45.3,37.9c32.9,10.9,61.5,21.2,61.5,53.3c0,30.8-24.1,50.9-61,50.9
		C1072.8,191.9,1048.2,174.4,1039.7,148.1z"/>
</g>
<g>
	<path d="M1181.2,96.2c0-53,42.2-95.7,95.7-95.7s95.7,42.7,95.7,95.7c0,53-42.2,95.7-95.7,95.7S1181.2,149.2,1181.2,96.2z
		 M1358.6,96.2c0-45.6-35.8-82.2-81.7-82.2s-81.7,36.6-81.7,82.2s35.8,82.2,81.7,82.2C1322.8,178.4,1358.6,141.8,1358.6,96.2z"/>
</g>
<g>
	<path d="M1385.2,96.2c0-53,42.2-95.7,95.7-95.7s95.7,42.7,95.7,95.7c0,53-42.2,95.7-95.7,95.7S1385.2,149.2,1385.2,96.2z
		 M1562.6,96.2c0-45.6-35.8-82.2-81.7-82.2s-81.7,36.6-81.7,82.2s35.8,82.2,81.7,82.2C1526.8,178.4,1562.6,141.8,1562.6,96.2z"/>
</g>
<g>
	<path d="M1735.8,3.4V189h-12.5L1613.9,29.4V189h-14.1V3.4h12.2L1721.8,163V3.4H1735.8z"/>
</g>
</svg>
